<svg xmlns="http://www.w3.org/2000/svg" viewBox="0 0 760 400" width="760" height="400" font-family="'SFMono-Regular', Consolas, 'Liberation Mono', monospace" role="img" aria-label="Huffman tree built for the input ABRACADABRA">
  <defs>
    <linearGradient id="bgT" x1="0" y1="0" x2="1" y2="1"><stop offset="0" stop-color="#0B1021"/><stop offset="1" stop-color="#161B33"/></linearGradient>
  </defs>
  <rect width="760" height="400" rx="14" fill="url(#bgT)"/>
  <text x="30" y="34" font-size="15" font-weight="700" fill="#94A3B8" font-family="'Segoe UI', sans-serif" letter-spacing="1">WORKED EXAMPLE &#8212; INPUT: "ABRACADABRA"</text>

  <!-- edges -->
  <g stroke="#334155" stroke-width="2" fill="none">
    <line x1="380" y1="70"  x2="220" y2="140"/>
    <line x1="380" y1="70"  x2="540" y2="140"/>
    <line x1="540" y1="140" x2="460" y2="220"/>
    <line x1="540" y1="140" x2="620" y2="220"/>
    <line x1="460" y1="220" x2="400" y2="300"/>
    <line x1="460" y1="220" x2="520" y2="300"/>
    <line x1="620" y1="220" x2="560" y2="300"/>
    <line x1="620" y1="220" x2="680" y2="300"/>
  </g>
  <!-- edge labels -->
  <g font-size="13" font-weight="700" fill="#FBBF24">
    <text x="286" y="100">0</text><text x="466" y="100">1</text>
    <text x="486" y="175">0</text><text x="586" y="175">1</text>
    <text x="416" y="255">0</text><text x="500" y="255">1</text>
    <text x="576" y="255">0</text><text x="660" y="255">1</text>
  </g>

  <!-- internal nodes -->
  <g>
    <circle cx="380" cy="70"  r="26" fill="#0E1A2B" stroke="#38BDF8" stroke-width="2.5"/>
    <text x="380" y="75" text-anchor="middle" font-size="13" fill="#E2E8F0">11</text>

    <circle cx="540" cy="140" r="24" fill="#0E1A2B" stroke="#38BDF8" stroke-width="2.5"/>
    <text x="540" y="145" text-anchor="middle" font-size="13" fill="#E2E8F0">6</text>

    <circle cx="460" cy="220" r="22" fill="#0E1A2B" stroke="#38BDF8" stroke-width="2.5"/>
    <text x="460" y="225" text-anchor="middle" font-size="12" fill="#E2E8F0">2</text>

    <circle cx="620" cy="220" r="22" fill="#0E1A2B" stroke="#38BDF8" stroke-width="2.5"/>
    <text x="620" y="225" text-anchor="middle" font-size="12" fill="#E2E8F0">4</text>
  </g>

  <!-- leaves -->
  <g font-size="14" font-weight="800" text-anchor="middle">
    <circle cx="220" cy="140" r="30" fill="#161327" stroke="#A78BFA" stroke-width="3"/>
    <text x="220" y="136" fill="#E2E8F0">A</text><text x="220" y="153" font-size="11" font-weight="500" fill="#94A3B8">freq 5</text>

    <circle cx="400" cy="300" r="27" fill="#0F2019" stroke="#34D399" stroke-width="3"/>
    <text x="400" y="296" fill="#E2E8F0">C</text><text x="400" y="313" font-size="11" font-weight="500" fill="#94A3B8">freq 1</text>

    <circle cx="520" cy="300" r="27" fill="#0F2019" stroke="#34D399" stroke-width="3"/>
    <text x="520" y="296" fill="#E2E8F0">D</text><text x="520" y="313" font-size="11" font-weight="500" fill="#94A3B8">freq 1</text>

    <circle cx="560" cy="300" r="27" fill="#231C0B" stroke="#FBBF24" stroke-width="3"/>
    <text x="560" y="296" fill="#E2E8F0">B</text><text x="560" y="313" font-size="11" font-weight="500" fill="#94A3B8">freq 2</text>

    <circle cx="680" cy="300" r="27" fill="#231C0B" stroke="#FBBF24" stroke-width="3"/>
    <text x="680" y="296" fill="#E2E8F0">R</text><text x="680" y="313" font-size="11" font-weight="500" fill="#94A3B8">freq 2</text>
  </g>

  <!-- codes table -->
  <g font-size="13" font-family="'SFMono-Regular', Consolas, monospace">
    <text x="30" y="370" fill="#64748B">Codes read root&#8594;leaf:</text>
    <text x="220" y="370" fill="#A78BFA">A=0</text>
    <text x="290" y="370" fill="#34D399">C=100</text>
    <text x="380" y="370" fill="#34D399">D=101</text>
    <text x="470" y="370" fill="#FBBF24">B=110</text>
    <text x="560" y="370" fill="#FBBF24">R=111</text>
  </g>
</svg>
